<svg width="18" height="12" viewBox="0 0 18 12" fill="none" xmlns="http://www.w3.org/2000/svg">
<rect width="18" height="12" fill="white"/>
<path d="M16.9713 5.8728C16.1927 4.24736 14.9047 2.92061 13.3028 2.09398L14.406 0.990725C14.5112 0.883478 14.5112 0.71183 14.406 0.604584C14.3542 0.552378 14.2838 0.522949 14.2103 0.522949C14.1366 0.522949 14.0662 0.552377 14.0144 0.604584L12.7787 1.82372C11.5884 1.29831 10.3012 1.02767 8.99992 1.0294C7.34885 0.998003 5.72293 1.4366 4.31139 2.29421C2.90016 3.15169 1.76169 4.39273 1.02872 5.87255C0.990427 5.94692 0.990427 6.03533 1.02872 6.1097C1.80444 7.74133 3.09276 9.07422 4.69721 9.90491L3.59395 11.0082C3.4888 11.1154 3.4888 11.2871 3.59395 11.3943C3.64653 11.4471 3.71795 11.4768 3.79257 11.4771C3.86534 11.4759 3.93466 11.4463 3.98564 11.3943L5.22126 10.1642V10.1641C6.41133 10.6906 7.69867 10.9613 9.00007 10.9586C10.6517 10.9893 12.2783 10.5499 13.6896 9.69142C15.1009 8.83283 16.2391 7.59066 16.9713 6.10961C17.0096 6.03524 17.0096 5.94683 16.9713 5.87246L16.9713 5.8728ZM1.58081 5.99421C2.28255 4.63951 3.34934 3.50832 4.66058 2.72857C5.97169 1.94866 7.47499 1.55117 9.00017 1.58124C10.1527 1.57841 11.2943 1.80337 12.3594 2.24319L10.7377 3.86495C10.1964 3.42573 9.50883 3.20792 8.81349 3.25507C8.11806 3.30223 7.46619 3.61092 6.98918 4.11908C6.51203 4.62724 6.24511 5.29721 6.24189 5.99424C6.2446 6.62789 6.46907 7.24071 6.87627 7.72633L5.1055 9.49709C3.57866 8.74697 2.3402 7.51627 1.58075 5.9944L1.58081 5.99421ZM7.2626 7.34016C6.92645 6.90342 6.76588 6.35684 6.81244 5.80767C6.85898 5.25862 7.10931 4.74677 7.51417 4.37293C7.91904 3.99908 8.44923 3.79028 9.00026 3.78769C9.48847 3.79077 9.9618 3.95565 10.3462 4.25658L7.2626 7.34016ZM10.7379 4.64827V4.64814C11.1504 5.21998 11.2647 5.95444 11.0457 6.62452C10.8268 7.29474 10.3006 7.81989 9.63005 8.0377C8.95959 8.25553 8.22526 8.13978 7.65427 7.7263L10.7379 4.64827ZM9.00023 10.4073C7.84906 10.4086 6.70911 10.1818 5.64632 9.73978L7.26253 8.11802C7.80332 8.55674 8.49015 8.77468 9.18498 8.72803C9.87981 8.68137 10.5313 8.37366 11.0086 7.8666C11.486 7.35942 11.7538 6.69056 11.7583 5.99428C11.7563 5.35867 11.532 4.74387 11.1239 4.25664L12.8947 2.49143C14.4216 3.24142 15.66 4.47213 16.4195 5.99412C15.7167 7.34782 14.6497 8.47831 13.3387 9.25819C12.0279 10.0378 10.525 10.4358 9.00007 10.4072L9.00023 10.4073Z" fill="#0E47A2"/>
</svg>
